/* XPM */
static char *a9ad66a1faf84d4aba7bb6c9f89f5d56RyxCKZtdiIjEG3iT[] = {
/* columns rows colors chars-per-pixel */
"256 32 13 1 ",
"  c None",
". c #322125",
"X c #71693F",
"o c #CAAC00",
"O c #DEBD00",
"+ c #DFBD00",
"@ c #DFBE00",
"# c #DDBC1A",
"$ c #DFBE1A",
"% c #FFE900",
"& c #FFEA00",
"* c #F5DB38",
"= c #FFFF3A",
/* pixels */
"                                                                                                              XXXX                           XXXXX                                                                                                              ",
"                                                                               XXXX                         XX****XX                        X*****XX                          XXX                                                                               ",
"                                              XXXX                          XXX****X                      XX********XX                     X********X                       XX%%%XX                           XXXX                                              ",
"              XXXX                           X****XXX                      X********X                    X***********+X                   X**********X                    XX%%%%%%%X                        XX****X                           XXXX              ",
"             X****X                         X=*****++X                    X******++++X                  X***+====+++*++X                 X*******=****X                  X+++++%%&%%X                      X==*****X                         X****X             ",
"             X****oX                       X=====++++X                   X*****+++++++X                 X**+====+++++++X                X*******===**++X                 X++++++%%%%%X                    X===**===X                         X****X             ",
"            X=====oX                       X=====+++++X                 X****++++++++++X                X*+====++#+++++X                X***+**=====+++X                X+++X++++%%%%X                    X=========X                        X====X             ",
"            X=====XX                      X=====++XX++X                 X***+++++++X++++X              X=+====++++++++++X              X***+**======*+++X               X++X++++++%%%%X                   X=X=======X                        X====X             ",
"            X=====XX                      X====++++X++X                 X=**++++++++X+++X              X=====+++++++++++X              X***+*======**+++X               X++X++++++&%+=X                   X=X=======X                        X====X             ",
"            X=====XX                      X====++++X++X                X===+++++++++X+++X              X+===$+++++++++++X              X***+======****++X               X++X++++++++===X                  X=X=======X                        X====X             ",
"            X====+XX                     X**===++++*++X                X===+++++++++X+++X              X===+++++++++++++X              X***X=====**+**++X               X++X+++++++====X                  X=X===*****X                       X====X             ",
"            X====+*X                     X****+++++=++X                X==++++++++++X++X                X=+++++++++++++X                X*=X+===******+X                 X++X+++++=====X                  X=+===*++++X                       X====X             ",
"            X====+=X                     X++**+++++=+X                  X=+++++++++X*++X                X+++X++++$+++++X                X===*+=***+***+X                 X+++++++=====+X                   X=====++++X                       X====X             ",
"            X+===+=X                     X***+++++==+X                  X=+++X++++X*++X                  X+++XX+++++++X                  X====*+++****X                   X+++++=====++X                   X=====++++X                       X++++X             ",
"            X+++++=X                     X****+++X=++X                   XX+++XXX*++++X                  X++++++++++++X                   X==********X                    X++++XX===++X                    X=====++++X                       X++++X             ",
"            X****++X                     X****++X*++X                     X++++++++++X                    XX++++++++XX                     X********X                      X++=====+++X                     X=+==++++X                       X****X             ",
"            X****++X                      X***+++++X                       X+++++++XX                       XX++++XX                        XXX***XX                        X=====++XX                      X====++++X                       X****X             ",
"            X****++X                       X+++++++X                        XX+++XX                           XXXX                             XXX                           XX==+XX                         X==++++X                        X****X             ",
"            X****+X                         XXX++XX                           XXX                                                                                              XXX                           X==+XXX                         X****X             ",
"             XX+++X                            XX                                                                                                                                                             XXX                            X++++X             ",
"               XXX                                                                                                                                                                                                                            XXXX              ",
"                                                                                                                                                                                                                                                                ",
"                                                                                                                                                                                                                                                                ",
"                                                                                                                                                                                                                                                                ",
"                                                                                                                                                                                                                                                                ",
"                                                                                                                                                                                                                                                                ",
"             ......                          ......                           ....                            ....                            ....                            ....                           ......                          ......             ",
"           ..........                      ..........                      ..........                       ........                        ........                       ..........                      ..........                      ..........           ",
"          ............                     ..........                      ..........                      ..........                      ..........                      ..........                      ..........                     ............          ",
"           ..........                      ..........                      ..........                       ........                        ........                       ..........                      ..........                      ..........           ",
"             ......                          ......                           ....                            ....                            ....                            ....                           ......                          ......             ",
"                                                                                                                                                                                                                                                                "
};
