/* XPM */
static char *bf3b9a195e3540c8f8e9d70b6ac85fceZP6EFzopQa2L6WfC[] = {
/* columns rows colors chars-per-pixel */
"49 50 16 1 ",
"  c None",
". c black",
"X c #45283C",
"o c #663931",
"O c #4B692F",
"+ c #595652",
"@ c #696A6A",
"# c #8F563B",
"$ c #8A6F30",
"% c #BE7E50",
"& c #6ABE30",
"* c #8F974A",
"= c #D9A066",
"- c #99E550",
"; c #847E87",
": c #EEC39A",
/* pixels */
"              .....................              ",
"           .......:::::::=====........           ",
"        .......::=================.......        ",
"       .....::====%%%%%%%%%%%%%%=====.....       ",
"      ...::====%%##..#....###..##%%====%...      ",
"     ...=====%.##..&*.-&*$.#.-*..#.#%===%....    ",
"    ...====%%.&..$&*$O**$OO.&*$*O.-..%===%....   ",
"    ..====%%.-***O*$$*$$$$$$*$$O$*O$O.%===%#...  ",
"    ..====%.***$O$$$$$$$&**$O$$-$$$O&$.%==%%#..  ",
"    ..===%%.$$$$$$$&*$$-**$OO$$$$$$**$*.===%#... ",
"    ..===%%.*O-**$&-$$$$OO$$&*$$O*$$$$O.===%##.. ",
"    ..====%%..**$$$$$$&$$&*$*$$&*$$$*$.===%%##.. ",
"..  ..%====%%%...*$OO&**$**$$O$$$OO...====%%#o.. ",
".......%=====%%%%...*$$O&O$$O&*$...======%%##o.. ",
"+......%%=====:::%%%............========%%%##o.. ",
"+++....#%%%======:::::::::::===========%%%##oo.. ",
".+XXXXX.#%%%%=======================%%%%%##oo... ",
".......X.o#%%%%%%================%%%%%%###oo...  ",
"....;@XX..o##%%%%%%%%%%%%%%%%%%%%%%%####ooo.X..  ",
" ..;;;@.;;.oo######%%%%%%%%%%%%######oooo..XX..  ",
"...;;...;;;..ooooo###############ooooo...XXX.... ",
"..;;.....;;;;.....oooooooooooooooooo..XXXXX.oo.. ",
"..;@...%%..;;;;@@@.....oooooooooo...XXXXX..ooo...",
"..@....%%%%..@@@@@@@@@@..........XXXXXX..oooooo..",
"..@...%%%%%%%.....@@@@@++++++++XXXXXX..oooooooo..",
".@@...%%%%%%%%%%%%...@++++++++XXX....###ooooooo..",
".@...%%%%==========%%............#########oooooo.",
".@...%%================%%%%%%%%%%%#########ooooo.",
"@@...%======================%%%%%%%%#######ooooo.",
"@....======::::::=============%%%%%%%#######oooo.",
".....=====:::::::::============%%%%%%%######oooo.",
".. ..=====:::::::::=============%%%%%%######oooo.",
".  ..=====::::::::==============%%%%%%######oooo.",
"   ..%======:::::===============%%%%%%######oooo.",
"   ..%=========================%%%%%%%######oooo.",
"   ..%%=======================%%%%%%%%######ooo..",
"   ..%%%%===================%%%%%%%%%######oooo..",
"   ..%%%%%%%========%%%%%%%%%%%%%%%%%######ooo...",
"   ..#%%%%%%%%%%%%%%%%%%%%%%%%%%%%%%######oooo...",
"   ...##%%%%%%%%%%%%%%%%%%%%%%%%%%#######oooo... ",
"    ..####%%%%%%%%%%%%%%%%%%%%%#########ooooo... ",
"    ...o########%%%%%%%%%%############oooooo...  ",
"     ...oo#########################oooooooo...   ",
"      ...ooo####################ooooooooo....    ",
"       ....oooooo########oooooooooooooo.....     ",
"        .....oooooooooooooooooooooooo.....       ",
"          ......oooooooooooooooo........         ",
"            ..........................           ",
"               ..................                ",
"                                                 "
};
