/* XPM */
static char *result[] = {
/* columns rows colors chars-per-pixel */
"31 48 25 1 ",
"  c black",
". c #181818",
"X c #191919",
"o c #1B1B1B",
"O c gray11",
"+ c #272626",
"@ c #2B2727",
"# c #292828",
"$ c #302C2C",
"% c #3C3737",
"& c #544E4E",
"* c #554E4E",
"= c #625A5A",
"- c #655C5C",
"; c #665D5D",
": c #675E5E",
"> c #897D7D",
", c #8A7F7F",
"< c #8B8080",
"1 c #8D8181",
"2 c #8F8382",
"3 c #8F8283",
"4 c #8F8383",
"5 c #9E9191",
"6 c None",
/* pixels */
"66666$4.66666.55.66666.4$666666",
"66666.4#.6OOO.+#XOOO6.#4.666666",
"66666.4##O$::444:::$O##4.666666",
"66666.44#;44444444::;#44.666666",
"66666.44#%444444444:@#44.666666",
"66666.444 4444444444 444.666666",
"66666.44444554444441;444.666666",
"66666.444445544444444444.666666",
"66666o;4444554444444444-o666666",
"66666O=,>4<44444444<444-O666666",
"6666O$:44444444444444:::$O66666",
"6666O$*44444444444444::*$O66666",
"6666O:*:444444444444:::*:O66666",
"6666O4::444444444444::::4O66666",
"6666O:4::4444444434:::*4:O66666",
"66666O4*:::444444:::::*4O666666",
"666666O$::::::::::::::$O6666666",
"6666666O*::::::::::::*O66666666",
"6666OOOO$*::::::::::*$OOOO66666",
"666O$::**$$::::::::$$**::$O6666",
"66O$55544::::::::::::44555$O666",
"66O4554444::::::::::4444552O666",
"6O*444444444::::::444444444*O66",
"6O*:4444444444444444444444:&O66",
"6O::**444444444444444444**::O66",
"O$:::$*:44444444444444:*$:::$O6",
"O*4:*OO*:444:4444:444:*OO*::*O6",
"O:4:$6O$*:44:4444:44:*$O6$:4:O6",
"O55:O66O***::4444::***O66O:44O6",
"O45*OOOO*::::4444::::*$OOO*44O6",
"O:44:OO$:::::4444:::::$OO:44:O6",
"O:544$O$::::444444::::$O$445:O6",
"O*444:O*:*::444444::*:*O:444*O6",
"O$4444O::*::444444::*:*O4444$O6",
"6O*4:$O:::$::4444::$:4*O$:4*O66",
"66OOOOO:44*$**::**$*44*OOOOO666",
"666666O*444:$OOOO$::44*O6666666",
"666666O$44:*O6666O*:4:*O6666666",
"666666O$*::*O6666O*:::O66666666",
"6666666O$***O6666O***$O66666666",
"666666O$$***O6666O***$$O6666666",
"66666O$$*:::O6666O:::*$$O666666",
"66666O$$:44:O6666O:44:$$O666666",
"66666O**554*O6666O*455**O666666",
"66666O&:554*O6666O*455:*O666666",
"666666O$:4*$O6666O$*4:$O6666666",
"6666666OOOOO666666OOOOO66666666",
"6666666666666666666666666666666"
};
