/* XPM */
static char *result[] = {
/* columns rows colors chars-per-pixel */
"29 50 218 2 ",
"   c #101111",
".  c #151616",
"X  c gray9",
"o  c #171818",
"O  c #181818",
"+  c #181919",
"@  c #191A1A",
"#  c gray10",
"$  c #1B1A1A",
"%  c #1B1B1B",
"&  c gray11",
"*  c #1D1C1C",
"=  c #1D1D1D",
"-  c #1E1D1D",
";  c #1E1E1E",
":  c #1F1E1E",
">  c gray12",
",  c #201F1F",
"<  c #202020",
"1  c #212020",
"2  c gray13",
"3  c #222020",
"4  c #222121",
"5  c #232121",
"6  c #232222",
"7  c #252222",
"8  c #252424",
"9  c #262424",
"0  c #262525",
"q  c #272525",
"w  c #272626",
"e  c #282626",
"r  c #292626",
"t  c #292727",
"y  c #2A2727",
"u  c #292828",
"i  c #2B2828",
"p  c #2A2929",
"a  c #2C2929",
"s  c #2D2929",
"d  c #2F2B2B",
"f  c #2E2C2C",
"g  c #2F2D2D",
"h  c #302C2C",
"j  c #302D2D",
"k  c #312D2D",
"l  c #302E2E",
"z  c #312E2E",
"x  c #312F2F",
"c  c #323030",
"v  c #333030",
"b  c #363131",
"n  c #353232",
"m  c #363232",
"M  c #363333",
"N  c #383535",
"B  c #393535",
"V  c #393636",
"C  c #3A3636",
"Z  c #3B3636",
"A  c #3A3737",
"S  c #3C3737",
"D  c #3C3838",
"F  c #3D3838",
"G  c #3D3939",
"H  c #3F3A3A",
"J  c #3F3C3C",
"K  c #413B3B",
"L  c #413D3D",
"P  c #423D3D",
"I  c #433E3E",
"U  c #443E3E",
"Y  c #453F3F",
"T  c #444040",
"R  c #454040",
"E  c #464141",
"W  c #474141",
"Q  c #474242",
"!  c #484343",
"~  c #494343",
"^  c #4A4444",
"/  c #4B4545",
"(  c #4C4545",
")  c #4C4646",
"_  c #4D4646",
"`  c #4D4747",
"'  c #4E4747",
"]  c #4F4848",
"[  c #4F4949",
"{  c #504949",
"}  c #504A49",
"|  c #504A4A",
" . c #514A4A",
".. c #514B4B",
"X. c #524B4B",
"o. c #524C4C",
"O. c #534C4C",
"+. c #544D4D",
"@. c #554D4D",
"#. c #554E4E",
"$. c #564E4E",
"%. c #564F4F",
"&. c #574F4F",
"*. c #575050",
"=. c #585050",
"-. c #585151",
";. c #595151",
":. c #585252",
">. c #595252",
",. c #5A5252",
"<. c #5A5353",
"1. c #5B5454",
"2. c #5C5454",
"3. c #5C5555",
"4. c #5D5555",
"5. c #5E5656",
"6. c #5E5757",
"7. c #5F5757",
"8. c #605757",
"9. c #605858",
"0. c #615959",
"q. c #625959",
"w. c #625A5A",
"e. c #635A5A",
"r. c #635B5B",
"t. c #645B5B",
"y. c #645C5C",
"u. c #655C5C",
"i. c #655D5D",
"p. c #665D5D",
"a. c #665E5E",
"s. c #675E5E",
"d. c #675F5F",
"f. c #685F5F",
"g. c #695F5F",
"h. c #696060",
"j. c #6A6060",
"k. c #6A6161",
"l. c #6B6161",
"z. c #6B6262",
"x. c #6B6363",
"c. c #6C6262",
"v. c #6C6363",
"b. c #6D6464",
"n. c #6E6565",
"m. c #6F6666",
"M. c #706666",
"N. c #716767",
"B. c #726969",
"V. c #736969",
"C. c #746A6A",
"Z. c #746B6B",
"A. c #756B6B",
"S. c #766B6B",
"D. c #766C6C",
"F. c #776D6D",
"G. c #786D6D",
"H. c #786E6E",
"J. c #796F6F",
"K. c #7A6F6F",
"L. c #7A7070",
"P. c #7B7070",
"I. c #7C7171",
"U. c #7C7272",
"Y. c #7D7272",
"T. c #7D7373",
"R. c #7E7373",
"E. c #7E7474",
"W. c #7F7474",
"Q. c #7F7575",
"!. c #807575",
"~. c #817676",
"^. c #827777",
"/. c #837878",
"(. c #847979",
"). c #857979",
"_. c #857A7A",
"`. c #867A7A",
"'. c #867B7B",
"]. c #877B7B",
"[. c #877C7C",
"{. c #887C7C",
"}. c #897D7D",
"|. c #897E7E",
" X c #8A7E7E",
".X c #8A7F7F",
"XX c #8B7F7F",
"oX c #8C8080",
"OX c #8C8181",
"+X c #8D8181",
"@X c #8D8282",
"#X c #8E8282",
"$X c #8E8383",
"%X c #8F8383",
"&X c #908383",
"*X c #908484",
"=X c #918484",
"-X c #918585",
";X c #928585",
":X c #928686",
">X c #938787",
",X c #948787",
"<X c #958888",
"1X c #958989",
"2X c #968989",
"3X c #968A8A",
"4X c #978A8A",
"5X c #988C8C",
"6X c #998C8C",
"7X c #9A8E8E",
"8X c #9B8E8E",
"9X c #9C8F8F",
"0X c #9D9090",
"qX c #9E9191",
"wX c #9F9292",
"eX c #A09292",
"rX c #A09393",
"tX c None",
/* pixels */
"tXtXtXtXtX- tXtXtXtXtXtXtX; : ; tXtXtXtXtXtXtX- tXtXtXtXtX",
"tXtXtXtXd D.c tXtXtXtXtX  :.3X>.  tXtXtXtXtXc D.d tXtXtXtX",
"tXtXtXtX# L.J $ tX& = = # u A p # = = & tX$ J L.# tXtXtXtX",
"tXtXtXtXX J.L 0 > 9 ( 2.m.!.~.m.<.4./ 9 > 0 L J.X tXtXtXtX",
"tXtXtXtXO H.(.G ~ V.'.}.+X*X*XOX|.I.e.4.^ G (.H.O tXtXtXtX",
"tXtXtXtXO H.>XL C K.;X%X%X%X%X%X*X+XU.=.k L >XH.O tXtXtXtX",
"tXtXtXtXO H.-XE.7 e.:X%X%X%X%X%X%X*X%X<.3 W.-XH.O tXtXtXtX",
"tXtXtXtXO H.*X;XM.!.4X7X,X%X%X%X%X%X=XD.>.:X*XH.O tXtXtXtX",
"tXtXtXtXX J.-X%X-X*X6XwX2X$X%X%X%X%X%XXX].%X-XJ.X tXtXtXtX",
"tXtXtXtX@ r.XX*X%X%X6XeX2X$X%X%X%X%X%X&X*X%X.Xr.@ tXtXtXtX",
"tXtXtXtX% +.(.oX#X@X:X2X;X%X%X%X%X%X#X@X%X-X{.#.% tXtXtXtX",
"tXtXtXtX9 >._.+X#X#X#X%X%X%X%X%X%X%X#X#X}.J.D.<.9 tXtXtXtX",
"tXtXtX& i #.'.*X%X%X%X%X%X%X%X%X%X%X%X*X(.u.u.#.i & tXtXtX",
"tXtXtX& K ..C.XX%X%X%X%X%X%X%X%X%X%X%X XD.s.e.X.K & tXtXtX",
"tXtXtX= x.w.w.`.*X%X%X%X%X%X%X%X%X%X*X/.u.s.y.w.x.= tXtXtX",
"tXtXtX= B.L.k.J.oX*X%X%X%X%X%X%X%X=XXXG.p.u.u.L.B.= tXtXtX",
"tXtXtX* E '.b.r.K.^.XX*X*X*X*X*X X^.H.u.s.q.r.'.E * tXtXtX",
"tXtXtXtX+ 0.X.8.s.u.J.(./././.(.F.u.p.s.f.8.o.0.+ tXtXtXtX",
"tXtXtXtXtXO 9 #.s.s.p.p.p.p.p.p.p.s.s.s.s.#.9 O tXtXtXtXtX",
"tXtXtXtXtXtX# H 5.s.s.s.s.s.s.s.s.s.s.s.5.H # tXtXtXtXtXtX",
"tXtXtX: w t 0 z W -.t.s.s.s.s.s.s.s.t.-.W z 0 t w : tXtXtX",
"tXtX: S f.M.0.5.P b %.f.s.s.s.s.s.f.%.b P 5.0.M.f.S : tXtX",
"tX= B *XqX9X-X%XA.s.a.s.s.s.s.s.s.s.a.s.A.%X-X9XqX*XB = tX",
"tX8 ~.8X0X:X%X%X%XD.k.f.s.s.s.s.s.f.k.D.%X%X%X:X0X8X~.8 tX",
"> | '.%X*X%X%X%X%X#X#XF.g.j.j.j.g.F.#X#X%X%X%X%X*X%X'.} > ",
"> X.f.{.+X%X%X%X%X%X%X@XoXOXOXOXoX@X%X%X%X%X%X%X+X{.f...> ",
"< 7.s.3.>.(.#X%X%X%X%X%X%X%X%X%X%X%X%X%X%X%X#X(.>.3.s.7.< ",
"k e.s.y.Z O.f.'.&X%X%X%X%X%X%X%X%X%X%X%X&X'.f.O.Z y.s.w.k ",
"O./.k.>.e 4 ) d.`.*X*XJ.Q.*X%X*XQ.J.*X*X`.d.) 4 e >.s.u. .",
"p..Xl.F tX% h [ f.`.;XA.Y.*X%X*XY.A.;X`.f.[ h % tXF k.(.p.",
">X5Xc.t tXtX; Q -.5.z.h.R.*X%X*XR.h.z.5.-.Q - tXtXt k.@X[.",
"1X9X6.4 % & # E 7.q.u.i.R.*X%X*XR.i.u.q.7.^ q & % 4 4.@X=X",
"C.%XQ.%.6 % 9 +.s.s.s.u.T.*X%X*XT.u.s.s.s.$.i % 6 %.W.oXC.",
"h.<X-X).m = y ,.g.s.p.F..X%X%X%X.XF.p.s.g.,.t = m ).-X1Xh.",
"9.*X*X%X2.8 D 9.7.r.p.!.-X%X%X%X-X!.p.r.7.9.F 8 2.%X*X*X9.",
"U  X%X*X'.f | s.;.w.s.!.-X%X%X%X-X!.s.w.-.e.! g '.*X%X XU ",
"q v.%XW.w.w %.s.9.` 2.V.{.;X*X;X{.V.2._ f.Z.Q w w.W.%Xv.q ",
"= n | P q & *.F.R.X.I $.z.L.R.L.z.#.U X.(./.Q & q P | n = ",
"tXtX. X # % | _.:XT.%.Y F G I G F Y ] m.>X^.Q % # X . tXtX",
"tXtXtXtXtX% C W.:X].n.D - o o o - G u.A.+XA.! % tXtXtXtXtX",
"tXtXtXtXtX& r f.~.m.2.l tXtXtXtXtXl 3.N.P.4.V % tXtXtXtXtX",
"tXtXtXtXtX& 9 H >.q.1.z tXtXtXtXtXz 1.0.5.R + tXtXtXtXtXtX",
"tXtXtXtXtXtX< y ^ #.%.x tXtXtXtXtXx %.#.~ y 1 tXtXtXtXtXtX",
"tXtXtXtXtX< s m { ,.1.v tXtXtXtXtXv 1.,.{ m s < tXtXtXtXtX",
"tXtXtXtX& a d ' k.N.b.N tXtXtXtXtXN b.N.k.' d a & tXtXtXtX",
"tXtXtXtX& z b q. X:XS.M tXtXtXtXtXM S.:X Xq.b z & tXtXtXtX",
"tXtXtXtX& ^ &.+XrX2Xz.j tXtXtXtXtXj z.2XrX+X&.^ & tXtXtXtX",
"tXtXtXtX& T 2..X0X-Xp.f tXtXtXtXtXf p.-X0X.X2.R & tXtXtXtX",
"tXtXtXtXtX= i @.T.y.Z 5 tXtXtXtXtX5 Z y.T.@.i = tXtXtXtXtX",
"tXtXtXtXtXtX= > 2 , - tXtXtXtXtXtXtX- , 2 > = tXtXtXtXtXtX"
};
