/* XPM */
static char *result[] = {
/* columns rows colors chars-per-pixel */
"32 49 52 1 ",
"  c #1D1D1D",
". c #201F1F",
"X c #232222",
"o c #292626",
"O c #2C2A2A",
"+ c #312E2E",
"@ c #343131",
"# c #393636",
"$ c #3E3939",
"% c #423D3D",
"& c #233743",
"* c #2B4656",
"= c #1C5D64",
"- c #464141",
"; c #4A4545",
": c #4E4949",
"> c #544D4D",
", c #565050",
"< c #5C5454",
"1 c #5F5B5B",
"2 c #645B5B",
"3 c #685F5F",
"4 c #566977",
"5 c #586D7C",
"6 c #6B6363",
"7 c #62656B",
"8 c #6E6868",
"9 c #706767",
"0 c #756B6B",
"q c #7A6F6F",
"w c #7A706F",
"e c #747174",
"r c #7C7272",
"t c #817676",
"y c #857A7A",
"u c #8A7E7E",
"i c #1F9AA8",
"p c #478187",
"a c #598C91",
"s c #8F8383",
"d c #918585",
"f c #968989",
"g c #9A8D8D",
"h c #919193",
"j c #9E9191",
"k c #929A9E",
"l c #A09393",
"z c #A69D9D",
"x c #86B1B6",
"c c #8EECF7",
"v c #D7D6D6",
"b c None",
/* pixels */
"bbbbbbbbbbbbbbbbbbbbbbbbbbbbbbbb",
"bbbbbbbbbbObbbbbbbbObbbbbbbbbbbb",
"bbbbbbbbb ,-bbbbbb;<Obbbbbbbbbbb",
"bbbbbbObb ,%  XOX >1. bbbbbbbbbb",
"bbbbbO2%b XOO->6>O<<XOX bbbbbbbb",
"bbbbbO8;  X-6ryu,:t1#>%O.bbbbbbb",
"bbbbbO8r$.-0sss6$1d<-r6;O bbbbbb",
"bbbbbb%ru$,uggf>-rd<;ur3-Xbbbbbb",
"bbbbbbX0j:#8gjjrrdd<-usr,O bbbbb",
"bbbbbbO0gr8ygjjfdss<-udy2%Xbbbbb",
"bbbbbbX6ddssddddsss<;udt6:Xbbbbb",
"bbbbbbb%0dssssdsssd<;sdur>Xbbbbb",
"bbbbbbbX6ssssssssssrqsssy>Xbbbbb",
"bbbbbbbX6dssssssdsdddsssy>Xbbbbb",
"bbbbbbbX6dssddsdssssr630t>Xbbbbb",
"bbbbbbbX3ssssdfdsssy32628;Xbbbbb",
"bbbbbbbX,udsr2,18ty89yt2<%Xbbbbb",
"bbbbbbbb#8ds1O=iprr9yu0<:+bbbbbb",
"bbbbbbbbX3ds4&acxyr8tt<%+bbbbbbb",
"bbbbbbbbX2ds5*kvzy922:+.bbbbbbbb",
"bbbbbbbbX,use7gzdyt9<#..bbbbbbbb",
"bbbbbbbbb#<yddssddy9>@o.bbbbbbbb",
"bbbbbbbbbb@;8yssdy9:%%:%obbbbbbb",
"bbbbbbbbbbXO%><<2:%%;9yt,obbbbbb",
"bbbbbbbbb @%%--::;;,0ugly%.bbbbb",
"bbbbbbbbb -<<233239yddglf3Obbbbb",
"bbbbbbbbbX,rrqqqqqtdssdffq%.bbbb",
"bbbbbbbbbX2ddsdssdddyryddu<.bbbb",
"bbbbbbbbbX,usdddsdddy63usd9Obbbb",
"bbbbbbbbb :tsssdddsdu2>usu2Xbbbb",
"bbbbbbbbb $0ddfgjdyt8-,sdr%.bbbb",
"bbbbbbbbb o2uuyytrq<%-0du3Obbbbb",
"bbbbbbbbbb -tur9,%:#O<dfr%.bbbbb",
"bbbbbbbbbb #0gdr:+@$>qdt2Obbbbbb",
"bbbbbbbbbb O6dr--390ryq<$Xbbbbbb",
"bbbbbbbbbb X1u>O2dgfu8>#.bbbbbbb",
"bbbbbbbbbb.+>0;#0ddd6$X bbbbbbbb",
"bbbbbbbbb +:22$#8uu6#oX bbbbbbbb",
"bbbbbbbbbX%,22#o%<<$#>>+bbbbbbbb",
"bbbbbbbb o-<2>#X XX#6ut:.bbbbbbb",
"bbbbbbbb o-22%obb  -wfd<Obbbbbbb",
"bbbbbbbbX+;,:+bbbb #9sfr; bbbbbb",
"bbbbbbb.+->%obbbbbb+:8uq>OXbbbbb",
"bbbb+@+@->$OXbbbbbbbo$>2<:+Xbbbb",
"bbbX;96,>>$.bbbbbbbbbX$><3:+ bbb",
"bbb.+<q3,>%Xbbbbbbbbb +>8r2-Xbbb",
"bbbb.+:2,,>+bbbbbbbbO#:9uy2%Xbbb",
"bbbbb.X+%;:+bbbbbbb@<ryuuq-obbbb",
"bbbbbbb.XXXbbbbbbbb$3rdy6>obbbbb"
};
