/* XPM */
static char *result[] = {
/* columns rows colors chars-per-pixel */
"32 49 53 1 ",
"  c #1D1D1D",
". c #201F1F",
"X c #242222",
"o c #282626",
"O c #2C2A2A",
"+ c #312E2E",
"@ c #353232",
"# c #3A3636",
"$ c #3D3939",
"% c #423D3D",
"& c #243944",
"* c #2C4757",
"= c #1A6169",
"- c #464141",
"; c #4B4545",
": c #4E4847",
"> c #4E4848",
", c #534C4C",
"< c #575151",
"1 c #5B5454",
"2 c #605757",
"3 c #635B5B",
"4 c #685F5F",
"5 c #5E5F60",
"6 c #536877",
"7 c #556B7A",
"8 c #6B6363",
"9 c #64676D",
"0 c #6E6969",
"q c #706767",
"w c #756B6B",
"e c #796F6F",
"r c #747174",
"t c #7C7171",
"y c #817676",
"u c #857A7A",
"i c #897E7E",
"p c #1D9DAB",
"a c #468087",
"s c #5D9196",
"d c #8F8383",
"f c #918585",
"g c #968989",
"h c #9A8D8D",
"j c #929294",
"k c #9F9191",
"l c #A19393",
"z c #A49B9B",
"x c #979FA3",
"c c #87AEB3",
"v c #91ECF4",
"b c #D6D4D4",
"n c None",
/* pixels */
"nnnnnnnnnnnnnOonnnnnnnOnnnnnnnnn",
"nnnnnnnnnnnnO<>nnnnnn-<Xnn@nnnnn",
"nnnnnnnnnnn .1<XXOXX $< n$3Onnnn",
"nnnnnnnnn X+o12O>8<-OoO  ;8Onnnn",
"nnnnnnnn O-4-1u,<iuw1%O.%tqOnnnn",
"nnnnnnn O,ei:1d2$3ddt2$$uy%nnnnn",
"nnnnnnnX;rdg><du;>ddd8@>htXnnnnn",
"nnnnnn O8dfg,<ffttddfuqtgrOnnnnn",
"nnnnnnX$tfdg,<fdffdddffdf8onnnnn",
"nnnnnnX,udfd:<dfdddfdfdfw$nnnnnn",
"nnnnnnX3ddfd,1fddddddddf8Xnnnnnn",
"nnnnnnX8fdddttdddddfdddd8Xnnnnnn",
"nnnnnnX8fdddddfdfdddfdfi1Xnnnnnn",
"nnnnnnX<uw38tddddfffdddd3Xnnnnnn",
"nnnnnnX;82838udfddgfdddf8Xnnnnnn",
"nnnnnn.%21tu8qyy05<3tdfi1Xnnnnnn",
"nnnnnnn+:1efuqttap=O<df0#nnnnnnn",
"nnnnnnnnO#1yyqtucvs&6df8Xnnnnnnn",
"nnnnnnnnnX@:24qyzbx*7df8Xnnnnnnn",
"nnnnnnnnn..#<wyufkj9rdi1Xnnnnnnn",
"nnnnnnnnnXo@,8ufffddfu1#nnnnnnnn",
"nnnnnnnno%:;%>8udddu0:+nnnnnnnnn",
"nnnnnnno,yy8:%-,111<$OXnnnnnnnnn",
"nnnnnn.%ulkie1;::::;%%@.nnnnnnnn",
"nnnnnnO2gkhfdu03348311; nnnnnnnn",
"nnnnn.#tggfddduttetttt<Xnnnnnnnn",
"nnnnnX1ifdytiddddddddf8.nnnnnnnn",
"nnnnnO8fdd48uddfdddddd1Xnnnnnnnn",
"nnnnnX2ddd,1ifffgfddfu>.nnnnnnnn",
"nnnnn $edd1;8tifkhggdt$.nnnnnnnn",
"nnnnnnO2ige;$1wttuiid1o nnnnnnnn",
"nnnnnn.$tgf2O#;-<qtit;.nnnnnnnnn",
"nnnnnnnO2uft,$@+;wfhe# nnnnnnnnn",
"nnnnnnnn#<eiteq8;%ef8O nnnnnnnnn",
"nnnnnnnnn#>8ighf3+,i2O nnnnnnnnn",
"nnnnnnnnn X$3dgfw$;w<@.nnnnnnnnn",
"nnnnnnnnn Xo#3di8$#32;+ nnnnnnnn",
"nnnnnnnnn+,,#$11%o@23<%Xnnnnnnnn",
"nnnnnnnn :yd8#XX.X@<42;o nnnnnnn",
"nnnnnnnnO1dgw%X nnX%33;o nnnnnnn",
"nnnnnnn -thfq$ nnnn+><:+Xnnnnnnn",
"nnnnnn.o,tuq>+nnnnnno$:;+Xnnnnnn",
"nnnnnX+:11<$onnnnnnnXO%,;@+@+nnn",
"nnnn +>82,$XnnnnnnnnnX#,,,8q:Xnn",
"nnnnX%2tq<@ nnnnnnnnnX%,<4e1@ nn",
"nnnnX%2udq:#Onnnnnnnn+,,<1,+Xnnn",
"nnnnno-wiiit2@nnnnnnn+;;%+X.nnnn",
"nnnnnnO;1qt81#nnnnnnnnoXX.nnnnnn",
"nnnnnnnXoOOOoXnnnnnnnnnnnnnnnnnn"
};
