/* XPM */
static char *result[] = {
/* columns rows colors chars-per-pixel */
"31 48 22 1 ",
"  c black",
". c #181818",
"X c gray11",
"o c #292828",
"O c #2F2C2C",
"+ c #302C2C",
"@ c #3C3737",
"# c #273F4C",
"$ c #554E4E",
"% c #675E5E",
"& c #726867",
"* c #3E87B2",
"= c #00D5EC",
"- c #8C8080",
"; c #8D8181",
": c #8E8282",
"> c #8F8382",
", c #8F8383",
"< c #9A8D8D",
"1 c #9E9191",
"2 c #F0F7F8",
"3 c None",
/* pixels */
"3333333333333333333333333333333",
"3333333333.3333333.333333333333",
"333333333.,.33333.,+33333333333",
"333333X33.,.XXXX.o,.X3333333333",
"33333X1X3.XX+$%,oo,.+XX33333333",
"33333X,XXX+$,,;;o,,.%$+X3333333",
"33333X1,XX%,,,,@o,,.,&%+X333333",
"333333X11X,,11, ,,,.,,%%X333333",
"333333X11XX,11<:,,,.,,,%+X33333",
"333333X1,,,,111,,,,.,,,%$X33333",
"333333X,,,,,,,,,,,-.,,,%%X33333",
"3333333X,,,,,,,,,,,.,,,,%X33333",
"3333333X,,,,,,,,,,,,,,,,%X33333",
"3333333X,,,,,,,,,,>,,,,,%X33333",
"3333333X,,,,,,,,,,,,$$$,%X33333",
"3333333X,,,,,11,,,,%$,$%$X33333",
"3333333X%,,,%++$%,%%,,$%$X33333",
"33333333X,,,XX==%,%,,,$$X333333",
"33333333X,,,*X22,,%%,$+X3333333",
"33333333X,,,##2,,%%%++X33333333",
"33333333X%,,,,,,,,,%$XX33333333",
"333333333X$,,,,,,,%$+++X3333333",
"3333333333X+%,,,,%$+$%%+X333333",
"333333333X+++++++++$%111+X33333",
"333333333X$$$%%%%%%,,111%X33333",
"333333333X%%%%%%%%,,,,11,+X3333",
"333333333X,,,,,,,,,,,,,,,$X3333",
"333333333X,,,,,,,,,,%%,,,,X3333",
"333333333X%,,,,,,,,,,+,,,,X3333",
"333333333X%,,,,11,,,%+,,,$X3333",
"333333333X+,,111,,%%+$,,,+X3333",
"333333333XX%,%%$$%%X+,1,$X33333",
"3333333333X$11,,XXX+$1,,+X33333",
"3333333333X+,,,X$$%%,,%$X333333",
"3333333333XO,,X+,11,,%$X3333333",
"3333333333X+%,X$,,1,$+X33333333",
"333333333X+$%%X%,,,$XXX33333333",
"333333333X$$%$X+%,$X+$X33333333",
"33333333X+$%%$+XXXX$,,%X3333333",
"33333333X+$%%+X3XX+&,1%X3333333",
"33333333X+$%$X333XX%,1,$X333333",
"3333333X+$$+X33333X$%1,%XX33333",
"3333XXX+$$++X333333X+$$%$+X3333",
"333X%,%$$$+X33333333X+$$%$+X333",
"333X+%,$$$+X333333333X$$,%$X333",
"3333X+%%$$$X3333333XX+%,,%$X333",
"33333XX+$$$X333333X$,,,,,$X3333",
"3333333XXXX3333333X%%,,%$X33333"
};
