/* XPM */
static char *result[] = {
/* columns rows colors chars-per-pixel */
"32 50 68 1 ",
"  c #161616",
". c #171818",
"X c #1C1C1C",
"o c #211E1E",
"O c #232222",
"+ c #292626",
"@ c #20262F",
"# c #2D2A2A",
"$ c #312E2E",
"% c #202832",
"& c #353232",
"* c #393535",
"= c #3E3939",
"- c #423D3D",
"; c #274246",
": c #3A4953",
"> c #204C65",
", c #224F69",
"< c #2D5E62",
"1 c #2E6166",
"2 c #2C646A",
"3 c #3F787F",
"4 c #454141",
"5 c #4B4545",
"6 c #4F4949",
"7 c #524C4C",
"8 c #575050",
"9 c #5B5454",
"0 c #5D5B5C",
"q c #615655",
"w c #645B5B",
"e c #685F5F",
"r c #5C6269",
"t c #40767D",
"y c #626365",
"u c #6B6262",
"i c #716766",
"p c #756B6B",
"a c #796E6E",
"s c #7D7272",
"d c #827676",
"f c #847877",
"g c #857A7A",
"h c #8A7E7E",
"j c #627F83",
"k c #3BA6B7",
"l c #3DABBC",
"z c #608084",
"x c #63A0A7",
"c c #61A5AC",
"v c #58C3CF",
"b c #57C6D3",
"n c #8E8282",
"m c #918585",
"M c #968989",
"N c #9A8D8D",
"B c #9E9191",
"V c #A29494",
"C c #A59898",
"Z c #A99B9B",
"A c #9BA3A7",
"S c #A0A8AB",
"D c #B4ADAD",
"F c #BDB7B7",
"G c #C3BBBA",
"H c #ADC9D9",
"J c #B3CDDC",
"K c None",
/* pixels */
"KKKKKKXKKKKKKKKKKKKKKKKKXKKKKKKK",
"KKKKK#p&KKXXXOX.XooXXKK*p#KKKKKK",
"KKKKK.s=.X+48p5 *w9-+.X4p.KKKKKK",
"KKKKK s-+5pghm6 6nsq9=O4p.KKKKKK",
"KKKKK ag=unnM7qh98ngs6-gp.KKKKKK",
"KKKKK.pm--fBV59Z94Mna*4Mi.KKKKKK",
"KKKKK pMsOuCC57V95MM0+smp KKKKKK",
"KKKKK.pmmifBw7hBg60nsimmp KKKKKK",
"KKKKK.amnmmM-9MNC94Mnmnnp KKKKKK",
"KKKKK.qnmnnM-9mMB9-Mnnmn9 KKKKKK",
"KKKKKX8ghnm07anNCs7qmnng7XKKKKKK",
"KKKKK.7gnnm*qMnMBC0*Mmhp5XKKKKKK",
"KKKKKO5phmmwammhnNsumhpw5oKKKKKK",
"KKKK.78qasmBMnnnnnMNMfwq77XKKKKK",
"KKKKXsu0wqeiahmnnhpppiuqws.KKKKK",
"KKKKXss9w3;o<jhnhj<o;3wqpsXKKKKK",
"KKKKX0hwqb<%lxfmdxk@2v9wh9XKKKKK",
"KKKKK.q69F0>JGhnhGH>uF87q KKKKKK",
"KKKKKK..7gr:SDnnmDA:rf5..KKKKKKK",
"KKKKo+#+-pmmnnnnmhmmmp-+#+oKKKKK",
"KKKo=eie-7ignnnmmmhhi6-epu=oKKKK",
"KKX&mBBmp4&7pffsddp6$5amNBn&XKKK",
"KKOwNBNmmpe4&*&&&*&5epmmBBMqOKKK",
"KX7gNBmmnmpwwewwwwwwamhmmBNg6XKK",
"KX6gnnhnnnmpuuuuueupnnnnnhnf6XKK",
"KO7wu9wugnnnhnnnnnnnmnfuw9ue6XKK",
"X#qe8*60gnnnnnnnnnnmnndq6*9e0#XK",
"O9uww*$8ugnnnnnmnnnnmgu8#*wee9oK",
"Onhu9+X5wfNMnnmnnnnMNdq5X+8uhhOK",
"OMmu$KX$6ugNBMnnnMBMge7#XK&ummOK",
"OmBu+KKX489ugmnnnngu084oKK+iNmoK",
"Ohm9OXK+7wqpnMNBNMnpqw5.KXO0MgOK",
"ouns8O.#8uwfNBMMNBMfwu8OXO8fhuoK",
"owMmhu#+8euuhMnnmMhuee8+#igmMqoK",
"o9nn9n&*qqwwigmmmguww0q**h0mn8XK",
"X=hn*5+5w89weiaaaiew89q4+5*mh=XK",
"K+un96O4wq857eueuw758up6+69meOKK",
"KK&64-O5ww074====-47efg8+-46&KKK",
"KKK....=qpsu4O...X=upmf6O.. KKKK",
"KKKKKKKO7gMp6+KKKK*wpMs4XKKKKKKK",
"KKKKKKK.*sMp8+KKKK#7pdp4XKKKKKKK",
"KKKKKKKo&ugu=OKKKKO=uq9*XKKKKKKK",
"KKKKKKX&6qwq&KKKKKK&ww6+XKKKKKKK",
"KKKKKKo40upu*XKKKKX&qu9&+KKKKKKK",
"KKKKKX$6fmms6+KKKK+5uiiu5.KKKKKK",
"KKKKKX6ugmnmu&KKKK&qsnmh9+KKKKKK",
"KKKKKX9gnnnna*KKKK*annmng7XKKKKK",
"KKKKKXpmnnnMa*KKKK&pMnhmnp.KKKKK",
"KKKKKX7smwsMu$KKKKK6Ms0Ms8XKKKKK",
"KKKKKKOOOXoOoKKKKKKKOOoOooKKKKKK"
};
