/* XPM */
static char *result[] = {
/* columns rows colors chars-per-pixel */
"31 48 23 1 ",
"  c black",
". c #181818",
"X c gray11",
"o c #292828",
"O c #2F2C2C",
"+ c #302B2C",
"@ c #302C2C",
"# c #3C3737",
"$ c #273F4C",
"% c #544E4E",
"& c #554E4E",
"* c #675E5E",
"= c #726867",
"- c #3E87B2",
"; c #00D5EC",
": c #8B8080",
"> c #8C8080",
", c #8D8181",
"< c #8E8282",
"1 c #8F8383",
"2 c #9E9191",
"3 c #F0F7F8",
"4 c None",
/* pixels */
"4444444444444.4444444.444444444",
"444444444444@1.44444.1.44X44444",
"44444444444X.1o.XXXX.1.4X2X4444",
"444444444XX@.1oo1*&@XX.XX1X4444",
"44444444X@&1.11o,,1*&@XX12X4444",
"4444444X@*11.11o#111**X22X44444",
"4444444X*112.111 1111XX22X44444",
"444444X@1112.111<:1111112X44444",
"444444X&1112.111111111111X44444",
"444444X*1111.>1111111111X444444",
"444444X11111.11111111111X444444",
"444444X11111111111111111X444444",
"444444X1111111111111111*X444444",
"444444X*1&&&111111111111X444444",
"444444X&*&1&*11112211111X444444",
"444444X&*&11**1*&@@*111*X444444",
"4444444X&&111*1*;;XX111X4444444",
"44444444X@&1**1133X-111X4444444",
"444444444X@@***113$$111X4444444",
"444444444XX&*111111111*X4444444",
"44444444X@@@&*1111111&X44444444",
"4444444X@**&@&*1111*@X444444444",
"444444X@222*&@@@O@@@@@X44444444",
"444444X*22211*****=&&&X44444444",
"44444X@1221111********X44444444",
"44444X&111111111111111X44444444",
"44444X1111**1111111111X44444444",
"44444X1111@1111111111*X44444444",
"44444X&111@*111221111*X44444444",
"44444X@111&@**1122211@X44444444",
"444444X%121@X**&&**1*XX44444444",
"444444X+112&@XXX1122&X444444444",
"4444444X&*11**&&X111@X444444444",
"44444444X%*11221@X11@X444444444",
"444444444X@&1211&X1*@X444444444",
"444444444XXX&111*X**&@X44444444",
"444444444X&@X&1*@X&*&&X44444444",
"44444444X*11&XXXX@&**&@X4444444",
"44444444X*21*@XX4X@**&@X4444444",
"4444444X&121*XX444X&*&@X4444444",
"444444XX*12*&X44444X@&&@X444444",
"44444X@&*&&@X444444X@@&&@XXX444",
"4444X@&*&&@X44444444X@&&&*1*X44",
"4444X&*1&&X444444444X@&&&1*@X44",
"4444X&*11*@XX4444444X&&&**@X444",
"44444X&11111&X444444X&&&@XX4444",
"444444X&*11**X4444444XXXX444444",
"4444444XXXXXX444444444444444444"
};
