/* XPM */
static char *result[] = {
/* columns rows colors chars-per-pixel */
"31 48 25 1 ",
"  c black",
". c #181818",
"X c #1B1B1B",
"o c gray11",
"O c #292828",
"+ c #302C2C",
"@ c #3C3737",
"# c #273F4C",
"$ c #554E4E",
"% c #655C5C",
"& c #665D5D",
"* c #675E5E",
"= c #6D6263",
"- c #897D7D",
"; c #8A7F7F",
": c #3E87B2",
"> c #00D5EC",
", c #8B8080",
"< c #8D8181",
"1 c #8E8282",
"2 c #8F8383",
"3 c #9E9190",
"4 c #9E9191",
"5 c #F0F7F8",
"6 c None",
/* pixels */
"666666.6666666666666666.6666666",
"66666+2.66oooooooooo66.2+666666",
"66666.2O.o+$*2..**$+o.O2.666666",
"66666.2OO*2222..22**$OO2.666666",
"66666.22O<222.44.222&O22.666666",
"66666.22O@444.44.222@O22.666666",
"66666.222 444.24.222 222.666666",
"66666.222224.2442.2<1222.666666",
"66666.222222.2244.222222.666666",
"66666X&22222.2244.22222%X666666",
"66666o=;-2,.222442.,222%o666666",
"66666o$2222.222244.222*$o666666",
"6666o+$*2222222222222**$+o66666",
"6666o2$***34222222442**$2o66666",
"6666o2*$*$++*2222*++$**$2o66666",
"6666o22$*>oo>*22*>oo>*$22o66666",
"66666o2$*5o:522225:o5*$2o666666",
"666666oo*2##522225##2*oo6666666",
"6666oooo$222222222222$oooo66666",
"666o+**$+*2222222222*+$**+o6666",
"66o+4442*++*222222*++*2444+o666",
"66o*44422**++++++++**22444*o666",
"6o$2442222**********2222442$o66",
"6o$22222222********22222222$o66",
"6o$**$**22222222222222**$**$o66",
"o+**$+$*22222222222222*$+$**+o6",
"o****++**222222222222**++****o6",
"o42*$oo$*242222222242*$oo$*24o6",
"o42*o6o+$*2442222442*$+o6o*24o6",
"o44*o66o$$$*222222*$$$o66o*44o6",
"o22$oo6+***22444422***o6oo$22o6",
"o*22*oo+***24422442***+oo*22*o6",
"o*4222o+****222222****+o2224*o6",
"o$22+2o$*$***2222***$*$o2+22$o6",
"o+22++o$*$$********$$*$o++22+o6",
"6o$2**o$**$+$****$+$*2*o**2$o66",
"66ooooo$****+oooo+**22*+oooo666",
"666666o+*22*+o666o**22$o6666666",
"6666666o$22*$o666o$*22$o6666666",
"6666666o+22*+o666o+***$o6666666",
"666666o+$**$o66666o**$+o6666666",
"666666o$$***o66666o$**+o6666666",
"66666o+$222*+o666o+****$o666666",
"66666o$*2222$o666o$*222*o666666",
"66666o*22222*o666o*22222$o66666",
"66666o222222*o666o*222222o66666",
"66666o*24$44$o6666o44$42*o66666",
"666666ooooooo666666oooooo666666"
};
