/* XPM */
static char *c0bd89364cd843f7a54941858743e8e1H4zXJYHa9LuKwCp4[] = {
/* columns rows colors chars-per-pixel */
"50 50 38 1 ",
"  c None",
". c black",
"X c #070609",
"o c #0E0E0E",
"O c #1C1418",
"+ c #1D131E",
"@ c #1D1D21",
"# c #121D2D",
"$ c #1C2222",
"% c #2B2122",
"& c #22282A",
"* c gray16",
"= c #3B2924",
"- c #2A3034",
"; c #400B1F",
": c #651117",
"> c #61382D",
", c #714535",
"< c #4B4B4B",
"1 c #484E57",
"2 c #4A5057",
"3 c #726B7E",
"4 c #777777",
"5 c #82171C",
"6 c #AB1E1E",
"7 c #CD2429",
"8 c #2A518C",
"9 c #2DACD8",
"0 c #8B9498",
"q c #B19998",
"w c #AAAAAA",
"e c #B8BBBC",
"r c #C4B59F",
"t c gray85",
"y c #D8DCDC",
"u c #E5E6C7",
"i c #EFEEEF",
"p c white",
/* pixels */
"                :677777777776::                   ",
"               :677666677777776:                  ",
"              :67766556677777776:                 ",
"              :7765::556777777776:                ",
"             :7765:;55666777777776:               ",
"             :765:;:55666677777776:               ",
"             :66:;:556666667777776:               ",
"            ;565:;:556666667777776::              ",
"            ;55:;;;;566666667777::q:              ",
"            ;ruq;3qr;;56666677::rqr;              ",
"            ;uur;qruq3;;666:::rquu3;              ",
"            ;qrq;3qruurq:::qruuuuq;;              ",
"             ;;;e;;quuuuuuuuuur3;;;@              ",
"              @y@e1;;;qruuuur3;;>=yp@             ",
"              @pe10@0e;;;;;;;;>>>=@e@             ",
"              @1@@@ype@0101>>>>>>>X@              ",
"             @pyye1pe@10@1>,,>>>>>X               ",
"             @e0@1@@0e0@@=%OO=>>>=X@              ",
"             @@e1@pyye@=>=99XX>>>X*               ",
"              @10@e0@@@=>>iiX8><<X*               ",
"              @0@@@e1@<*=>>i##<tt<*               ",
"              @10e@@0@4<*>>>>>w**w*               ",
"               1@@1@*<4<<**<<<*%X<*               ",
"               @ +@:o<4<44<44<<44t*               ",
"                +566o*444w<4t4wttw*               ",
"                +6665o<4wwt4ttwtt4o               ",
"               +56655o<<4wtttttwt<o               ",
"               +565:55*<4twtt4t<4*                ",
"               +555;:5o*44<wt4t4*o                ",
"               +555+:55oo<*4t<4oo+                ",
"               +555+::556oooooooo+                ",
"               +555+;:5565qru565:+                ",
"               +555+;:5566:quq:5:+                ",
"               +:5:+;:5566:ru:65+%X               ",
"               +:::+%X:556:qu:6:+%X               ",
"               +;:+>>=X556:ru:5:q%X               ",
"               +++,>>OX:55:rr::quOX               ",
"                +%>>>OX;;;3quqruu3                ",
"                 X%>>>Xqrqqruuuur+                ",
"                  XXX.uuuuurqurq3+                ",
"                   +;;qrqrq3+++++                 ",
"                   X.+++++++..-.                  ",
"                   X.&&&&&.$&--.                  ",
"                   .$&&&...&&&&.                  ",
"                   .$&&&. .&&&$.                  ",
"                  .$$&&$. .&&&&...                ",
"                  .$&&&&&..&&&&-22.               ",
"                  .$&--22&.$$&&&--.               ",
"                  .$&&---2.........               ",
"                   .&&&&&&.X                      "
};
