/* XPM */
static char *_8e8171d1d8244c483eb9ec17fef47c6ElYMqeCK5OYywvkn[] = {
/* columns rows colors chars-per-pixel */
"50 50 38 1 ",
"  c None",
". c black",
"X c #070609",
"o c #0E0E0E",
"O c #1C1418",
"+ c #1D131E",
"@ c #1D1D21",
"# c #121D2D",
"$ c #1C2222",
"% c #2B2122",
"& c #22282A",
"* c gray16",
"= c #3B2924",
"- c #2A3034",
"; c #400B1F",
": c #651117",
"> c #61382D",
", c #714535",
"< c #4B4B4B",
"1 c #484E57",
"2 c #4A5057",
"3 c #726B7E",
"4 c #777777",
"5 c #82171C",
"6 c #AB1E1E",
"7 c #CD2429",
"8 c #2A518C",
"9 c #2DACD8",
"0 c #8B9498",
"q c #B19998",
"w c #AAAAAA",
"e c #B8BBBC",
"r c #C4B59F",
"t c gray85",
"y c #D8DCDC",
"u c #E5E6C7",
"i c #EFEEEF",
"p c white",
/* pixels */
"                 :677777776666776:                ",
"                :67777777665566776:               ",
"               :677777777655::5677:               ",
"              :67777777766655;:5677:              ",
"              :67777777666655:;:567:              ",
"              :677777766666655:;:66:              ",
"             ::677777766666655:;:565;             ",
"            @:q::777766666665;;;;:55;             ",
"            @;rqr::77666665;;rq3;qur;             ",
"            @;3uuqr:::666;;3qurq;ruu;             ",
"           @p;;quuuurq:::qruurq3;qrq;             ",
"           @e0;;;3ruuuuuuuuuuq;;e;;;              ",
"          @y@e1@@;;3ruuuurq;;;@e0@@               ",
"          @pey0@pe1;;;;;;;;>>1eeyyp@              ",
"          @@y@@ype@e1>>>>>>>>=1@@0e@              ",
"         @pyye@pe@10@>>>>>,,===e1e@@              ",
"         @e0@@@@0e@@=>>>>=OO%=%1ep@               ",
"         @0e1@pyye@X9=>>=9XX9=<10@@               ",
"         110y@e0@@X8i>>>>i8Xi=<1yyp@              ",
"          @@y0@e1@##i><<>i##>*@y@0e@              ",
"           10e@@0@>>><tt<>>>*401@e@               ",
"           +@01@t4<<<w**w<<<<@1@@@+               ",
"          +56@@*t4t4*<>><*44<4@665:+              ",
"          +6666*ttt4<4<<4<w444*6665+              ",
"         +56655o4tt4t4t<4tw44<o5565:+             ",
"         +555:5o<t4tttttttw4<<o5:55:+             ",
"         +555;:5*4<t4t4ttww4<*5:;555+             ",
"        +:555+:5o*4<4t4tw<44*o5:+555:+            ",
"        +:555+;55oo<*4<t4*<oo55;+555:+            ",
"        +:55:+;:555oooooooo555:;+:55:+            ",
"        +:55;++;55566:urq:5555;++;55:+            ",
"        +:55++ +55565quq:55555+ ++55:+            ",
"        +:++XX +55566:uq:55555+ XX++:+            ",
"        ++>>=XX+55566:ur::5555+XX=>>++            ",
"        +=,>>>X;55565rur:5555:;X>>>,=+            ",
"        X%>>O>Xq;:566:uq:555:;qX>O>>%X            ",
"        XO>>OOXuqr;:5:ur:55;rquXOO>>OX            ",
"         X%>==+uuuqr::ur::;quuu++=>%X             ",
"          XXX+3ruuuuqqurqrquuur3+XXX              ",
"             +;3qruuuuuruuuurr3;+                 ",
"             .&+++;rquqruqrq+++&.                 ",
"             .&&&&$++++++++$&&&&.                 ",
"             .&&&$.        .$&&&.                 ",
"             .$&$$.        .$$&$.                 ",
"            .$&&&$$.      .$$&&&$.                ",
"            .&&&&&&.      .&&&&&&.                ",
"           .&2-&&&$.      .$&&&-2&.               ",
"           .2---&$$.      .$$&---2.               ",
"           .---&$$.        .$$&---.               ",
"            ......          ......                "
};
