/* XPM */
static char *_66b320c9a69400e916faee981e22fbfshbMQAUqRfrMUzAz[] = {
/* columns rows colors chars-per-pixel */
"50 50 29 1 ",
"  c None",
". c black",
"X c #070609",
"o c #101414",
"O c #1C1418",
"+ c #1D131E",
"@ c #1D1D21",
"# c #1C2222",
"$ c #2B2122",
"% c #22282A",
"& c #3B2924",
"* c #2A3034",
"= c #400B1F",
"- c #651117",
"; c #61382D",
": c #714535",
"> c #484E57",
", c #4A5057",
"< c #726B7E",
"1 c #82171C",
"2 c #AB1E1E",
"3 c #CD2429",
"4 c #8B9498",
"5 c #B19998",
"6 c #B8BBBC",
"7 c #C4B59F",
"8 c #D8DCDC",
"9 c #E5E6C7",
"0 c white",
/* pixels */
"                     --2332--                     ",
"                   --23123333--                   ",
"                  -233123222233-                  ",
"                 -23331332222223-                 ",
"                -23331332222-122-                 ",
"                -2333132221-12222-                ",
"                -233312221-122222-@               ",
"               -2233-1221=1122222=4@              ",
"              @-5332-121=11222221=64@             ",
"              @=7572=11-=122222755=04@            ",
"              @=7995=--=1222215975=60@            ",
"             @0==599=-=11225799755=4@@            ",
"             @64====597=99999995==6880@           ",
"            @8@6>@@=799=99975===@4@@46@           ",
"            @06@4@4=575======4084@@>6@8@          ",
"            @@@8@006===@46@0@>@>84@4@60@          ",
"           @0886@04@0080@4666>8@608@@8>@          ",
"           @64@@>0@4@@46@@668@4>@60@6880@         ",
"            @6>@8@@8@>8@@>0@88>@64@@>@46@         ",
"           @@>>6880@>8@6>8@@>@4@6880@>6@          ",
"             @@>@46@>@@@6880@>64@@46@4@           ",
"              +@>6@@68>>@@46@4>6@>6>@@            ",
"             +@>8@>4@44>@>6@@68>@44@+ @           ",
"            +1@4@>@1@@@@>4@++@@@+-@@@+            ",
"            +222-@111@11@@111111@-@22+            ",
"           +-121-=+++111@1111+++=-121-+           ",
"           +1111----=++++++++=----1111+           ",
"           +1111=--111------111--=1111+           ",
"          +-111-+--111111111111--+-111-+          ",
"          +1111+=-11111111111111-=+1111+          ",
"          +1111+--11111111111111--+1111+          ",
"          +-11=+--11111111111111--+=11-+          ",
"          +-1-++=-11111111111111-=++-1-+          ",
"          +-++&+=-11111111111111-=+&++-+          ",
"          ++:;;O+-11111111111111-+O;;:++          ",
"          +$;;;&+-11111111111111-+&;;;$+          ",
"          XO;;;;+5----1-111-1---5+;;;;OX          ",
"           X$;&&+95757-------5759+&&;$X           ",
"            XXX+799999575757599997++XX            ",
"              +<579979999999997975<+              ",
"              ++<557<759979575<75<++              ",
"               .++++++++++++++++++.               ",
"               .%%%%.        .%%%%.               ",
"              .o#%%o.        .o%%#o.              ",
"             ..##%#o.        .o#%##..             ",
"             .##%%%#.        .#%%%##.             ",
"             .#%%*,%.        .%,*%%#.             ",
"             .#%*,**.        .**,*%#.             ",
"              .#%**%.        .%**%#.              ",
"               .....          .....               "
};
