/* XPM */
static char *e7bf083b615146e9e733bc90c2fbe798TZJNeDF8HWJnEe7K[] = {
/* columns rows colors chars-per-pixel */
"50 50 39 1 ",
"  c None",
". c black",
"X c #070609",
"o c #0E0E0E",
"O c #1C1418",
"+ c #1D131E",
"@ c #1D1D21",
"# c #121D2D",
"$ c #1C2222",
"% c #2B2122",
"& c #22282A",
"* c gray16",
"= c #3B2924",
"- c #2A3034",
"; c #400B1F",
": c #651117",
"> c #61382D",
", c #714535",
"< c #4B4B4B",
"1 c #484E57",
"2 c #4D4A5D",
"3 c #4A5057",
"4 c #726B7E",
"5 c #777777",
"6 c #82171C",
"7 c #AB1E1E",
"8 c #CD2429",
"9 c #2A518C",
"0 c #2DACD8",
"q c #8B9498",
"w c #B19998",
"e c #AAAAAA",
"r c #B8BBBC",
"t c #C4B59F",
"y c gray85",
"u c #D8DCDC",
"i c #E5E6C7",
"p c #EFEEEF",
"a c white",
/* pixels */
"                    ::78888887::                  ",
"                  ::788888888887:                 ",
"                 :788888887777887:                ",
"                :78888888776677887:               ",
"               :788888888766::6788:               ",
"              :78888888877766;:6788:              ",
"              :78888888777766:;:678:              ",
"              :788888877777766:;:77:              ",
"             ::788888877777766:;:676;             ",
"             :w::888877777776;;;;:66;             ",
"             ;twt::88777776;;tw4;wit;             ",
"            @;4iiwt:::777;;4witw;tii;             ",
"            @;;wiiiitw:::wtiitw4;wtw;             ",
"            @1;;;4tiiiiiiiiiiw;;@;;;              ",
"           @au>>>;;4tiiiitw;;;r@u@                ",
"           @r@>>>>>;;;;;;;;q@q1ra@                ",
"            @X>>>>>>>1q1q@rau@@@1@                ",
"             X>>>>>,,>1@q1@ra1ruua@               ",
"            @X=>>>=OO%=@@qrq@@1@qr@               ",
"             *X>>>XX00=>=@ruua@1r@@               ",
"             *X<<>9Xpp>>=@@@qr@q1@                ",
"             *<yy<##p>>=*<@1r@@@q@                ",
"             *e**e>>>>>*<5@q@@rq1@                ",
"             *<X%*<<<**<<5<*@1@@1                 ",
"             *y55<<55<55<5<o:@+ @                 ",
"             *eyye5y5<e555*o776+                  ",
"             o5yyeyy5yee5<o6777+                  ",
"             o<yeyyyyye5<<o66776+                 ",
"              *5<y5yyey5<*66:676+                 ",
"              o*5y5ye<55*o6:;666+                 ",
"              +oo5<y5*<oo66:+666+                 ",
"              +oooooooo766::+666+                 ",
"              +:676itw6766:;+666+                 ",
"              +:6:wiw:7766:;+666+                 ",
"             X%+67:it:7766:;+:6:+                 ",
"             X%+:7:iw:766:X%+:::+                 ",
"             X%w:6:it:766X=>>+:;+                 ",
"             XOiw::tt:66:XO>>,+++                 ",
"              4iitwiw4;;;XO>>>%+                  ",
"              +tiiiitwwtwX>>>%X                   ",
"              +4wtiwtiiiii.XXX                    ",
"               ++++24wtwtw44+                     ",
"                .-..+++++++.X                     ",
"                .--&$.&&&&&.X                     ",
"                .&&&&...&&&$.                     ",
"                .$&&&. .&&&$.                     ",
"              ...&&&&. .$&&$$.                    ",
"             .33-&&&&..&&&&&$.                    ",
"             .--&&&$$.&33--&$.                    ",
"             .........3---&&$.                    "
};
