/* XPM */
static char *f90a152a482c4dbcc3e106f45f1ca272qU2M895Rs6wl9TpC[] = {
/* columns rows colors chars-per-pixel */
"50 50 3 1 ",
"  c #9E7C59",
". c #B08A63",
"X c #C2986D",
/* pixels */
"      X. ..XXX. XXX. .XXX. XXX.       X. ..XXX. .X",
"..... ..   .... .X. .XXXX. XXXX ..... ..   ...   .",
". XX.    ..      .. .XX.. .XXX. .XXX.    ..  .    ",
". ..    .XX.  ...    ..   .....   ..    .XX.X. ...",
" .XX    .XX. .XX.   .  ..      ...      .XX.X. .XX",
" .XX.... ..  XXXX. .X .XX.... .XX.  .... .  .. .XX",
"  ..  X.   . .XXXX .X XXXXXX. .XX.  .XX. .      .X",
".   ..XX. .X. .XXX XX .XXXXXX .X.. .XXXXX.   .X.  ",
".   .XXX. .X. .XXX XX .XXXXXX .X.. .XXXX..   ... X",
"    .XX.   . .XXXX .X XXXXXX. .XX.  .XX.  ..      ",
"..  ..X. ..  XXXX. .X .XX.... .XX.  ...  .XX. ....",
".X.   . .XX. .XX.   .  ..      ...     . .XX. .XXX",
".X.     .XX.  ...    ..   .....   ..   X. .. .XXXX",
".X ....  ..      .. .XX.. .XXX. .XXX.  .     .XXXX",
".. .XX..   .... .X. .XXXX. XXXX ..... . .X.  .XXXX",
"   .XXX. ..XXX. XXX. .XXX. XXX.       X.XXX. ..XXX",
"X.. .... .XXXXX .X..  .XX. ....   ... .XXXX.    ..",
"XX.      .XXXXX. .     .. .    .  .XX. XXX.. .X.  ",
"XX. ..XX .XXXXX.  ..     .XX. .X. .XXX XX.  .XXX. ",
"XX. .XXXX ...... .XX..   .... XXX. XX.      ..X. .",
" .. .XX..       .XXXXX.      .X... ..  X..    .. .",
".   .XX    ... .XX.XXX. ..... .      ..XXX. ..    ",
"X. .XXX..  .X. ..XX..X. .XXXX. .... .XX    .XX.   ",
"X. .XXXXX. .X. .XXXX.. XXXXXX. .X. .XXX.X. .XXX.  ",
"XX. .X.XX. ... ..XXX. ..XXXXX. ... .XXXXXX. .XXX. ",
"XX.    X.     . ..X..   .XXXX.     .XXXXXX. .XXX. ",
".. .XXX. .. ..X. .... .. .... .XXX. ...XX.   ... .",
"    ..X .X. .XXX. .. .XX.     .....    XX. ..   .X",
"..      .. .XXXXX.  .XXX.           ...XX. .XXX. X",
"X.  .XX    .XXXX.. .XXXXX.  ..... ..XX.X.. .XXX. .",
". ..XXX.... .X..   .XXXXX. .XXXX. .XXX     .XXX.  ",
"  .XXXX.XXX. .  ... .XXXXX. .XXXX. .XX ... ..X.. .",
". .XXX.XXXXX. ..XXX. .XXXX.  .XX. . .. XXX.     .X",
".  .X. .XXXXX .XXXXX. .... .. .. .X.   .XX. ..   .",
".     . .X... XXXXXX      .XX.  .XXX.  .... X.    ",
". .. .X ..    .XXXX. .... .XXX .XXXX.      .X. ...",
" .XX. . . .... ....  .XX. XXXX XXXXX.  .   .X. .XX",
" .XX.  X .XXX.        ..  ..X. .XXXX. .X..  .. .XX",
"  ..  .X XXXXX. .. ...  ..  .   .... .XXX.      .X",
".   ..XX .XXX. .X. XXX .XXXX   .    .XXXX.   .X.  ",
".   .XXXXX. ..X. XXXXXX. XX XXX. .X. .XX..   ... X",
"    .X.XX.  .XX. .XXXXXX X. XXXX. .   .XX ..      ",
"..  . ....  .XX. ....XX. X. .XXXX  .. ....XX. ....",
".X. X.      ...      ..  .   .XX. .XX.     X. .XXX",
".X.XX.    ..   .....   ..    ...  .XX.    .. .XXXX",
".X ..    .XXX. .XXX. ..XX. ..      ..    .XXX.XXXX",
"...   .. ..... XXXX .XXXX. .X. ....   .. .....XXXX",
"XXX.. .X       .XXX .XXX. .XXX .XXX.. .X       XXX",
"XXXX. .. ...   .... .XX.  ..X. XXXXX. .. ...   ...",
"XXXX.   .XX.  .    . ..     . .XXXXX.   .XX.  .   "
};
